/* XPM */
static char *classicon[] = {
/* columns rows colors chars-per-pixel */
"18 17 15 1",
"  c black",
". c #4C2904",
"X c #512C04",
"o c #6B3A06",
"O c #693C05",
"+ c #734106",
"@ c #800000",
"# c #945E05",
"$ c #FFC005",
"% c #FFE23F",
"& c #FF9B77",
"* c magenta",
"= c #008080",
"- c cyan",
"; c #808080",
/* pixels */
"&&&&&&.&&&&&&&&&&&",
"&&&&&.%.&&&&&&&&&&",
"&&&&.%%$.&&&&&&&&&",
"&&&.%%$$o.&&&&&&&&",
"&&.%%$$o+..&&& &&&",
"&.$$$$o+. &&& * &&",
"&& $$#+. &;& *@@ &",
"&&& oOX &&& *@@ &&",
"&&&& . &;&&& @ &&&",
"&&&&& &&&&&&& &&&&",
"&&&&&&&&;&&&&&&&&&",
"&&&&&&&&&&&&& &&&&",
"&&&&&&&&;&;& - &&&",
"&&&&&&&&&&& -== &&",
"&&&&&&&&&& -== &&&",
"&&&&&&&&&&& = &&&&",
"&&&&&&&&&&&& &&&&&"
};
