/* XPM */
static char * explorer[] = {
"162 17 349 2",
"  	c None",
". 	c #FF9B77",
"+ 	c #4C2904",
"@ 	c #FFE23F",
"# 	c #B2C2D8",
"$ 	c #AEBED4",
"% 	c #A9B9CF",
"& 	c #A4B3C9",
"* 	c #CDD6E2",
"= 	c #D9E1EC",
"- 	c #D7DEE9",
"; 	c #D5DCE7",
"> 	c #D2DAE4",
", 	c #E6EBF0",
"' 	c #D3DBE5",
") 	c #D2D8E3",
"! 	c #7D808F",
"~ 	c #607790",
"{ 	c #62768D",
"] 	c #62768E",
"^ 	c #5A748F",
"/ 	c #897F88",
"( 	c #FFC005",
"_ 	c #FFFFFF",
": 	c #9CABC0",
"< 	c #354963",
"[ 	c #A7B3C2",
"} 	c #4B094B",
"| 	c #CDD5DF",
"1 	c #9CA6B3",
"2 	c #9EABBE",
"3 	c #5D7690",
"4 	c #9EB2C5",
"5 	c #BCC9D8",
"6 	c #B8C5D5",
"7 	c #BBC8D7",
"8 	c #A5B5C8",
"9 	c #8C8087",
"0 	c #FE9A77",
"a 	c #6B3A06",
"b 	c #F9FBFE",
"c 	c #96A5BA",
"d 	c #BBC5D4",
"e 	c #364A64",
"f 	c #530953",
"g 	c #F956F9",
"h 	c #390939",
"i 	c #FBFCFE",
"j 	c #CBD3DD",
"k 	c #DEE2EA",
"l 	c #9DA6B3",
"m 	c #D4DAE1",
"n 	c #667A91",
"o 	c #7894AE",
"p 	c #869FB6",
"q 	c #839DB5",
"r 	c #859DB5",
"s 	c #7491AC",
"t 	c #476E8F",
"u 	c #8E7E84",
"v 	c #8C7D83",
"w 	c #8B7C83",
"x 	c #8A7C82",
"y 	c #8A7E86",
"z 	c #B08B86",
"A 	c #734106",
"B 	c #000000",
"C 	c #B1C1D7",
"D 	c #BFC7D8",
"E 	c #9AA9BF",
"F 	c #43566E",
"G 	c #3C4F69",
"H 	c #8087B4",
"I 	c #FF5EFF",
"J 	c #F450F4",
"K 	c #DF38DF",
"L 	c #260926",
"M 	c #DADFE8",
"N 	c #DFE3EC",
"O 	c #A6AFBA",
"P 	c #F6F8FC",
"Q 	c #3C5069",
"R 	c #A3ACB8",
"S 	c #A0A9B6",
"T 	c #677A92",
"U 	c #6E8BA7",
"V 	c #7C97B0",
"W 	c #809AB1",
"X 	c #849CB2",
"Y 	c #89A1B6",
"Z 	c #91A8BD",
"` 	c #93A9BE",
" .	c #96ACBF",
"..	c #99AEC0",
"+.	c #9BB0C2",
"@.	c #A0B4C6",
"#.	c #809BB2",
"$.	c #6D7A8D",
"%.	c #FF00FF",
"&.	c #ADBDD3",
"*.	c #CADAEE",
"=.	c #E2E6ED",
"-.	c #D9DDE7",
";.	c #E641E6",
">.	c #D426D4",
",.	c #C71EC7",
"'.	c #110911",
").	c #E5EDF6",
"!.	c #EDEFF3",
"~.	c #ECEEF3",
"{.	c #F0F2F6",
"].	c #E9ECF1",
"^.	c #62778F",
"/.	c #9FB0C5",
"(.	c #C6CFDE",
"_.	c #CDD5E0",
":.	c #D7DCE3",
"<.	c #DDE2E7",
"[.	c #E1E8EE",
"}.	c #ECEFF5",
"|.	c #F0F2F8",
"1.	c #F8F9F9",
"2.	c #FFFEFD",
"3.	c #C1CFDB",
"4.	c #6E7687",
"5.	c #945E05",
"6.	c #808080",
"7.	c #800000",
"8.	c #F4F7FD",
"9.	c #F3F6FC",
"0.	c #FB59FB",
"a.	c #F24DF2",
"b.	c #E741E7",
"c.	c #DA33DA",
"d.	c #C920C9",
"e.	c #BC13BC",
"f.	c #9E099E",
"g.	c #090909",
"h.	c #F4F7FC",
"i.	c #42556D",
"j.	c #63778F",
"k.	c #9AACC2",
"l.	c #BCC7D7",
"m.	c #C2CDDA",
"n.	c #CCD4DD",
"o.	c #D2DAE1",
"p.	c #D7DFE8",
"q.	c #DFE5ED",
"r.	c #E4E9F0",
"s.	c #EBEFF2",
"t.	c #F2F4F5",
"u.	c #F6F7F8",
"v.	c #B9C8D6",
"w.	c #6F7687",
"x.	c #693C05",
"y.	c #512C04",
"z.	c #A5B5CB",
"A.	c #EAEFFA",
"B.	c #4A5C73",
"C.	c #410941",
"D.	c #D630D6",
"E.	c #CB23CB",
"F.	c #F4F6FC",
"G.	c #EF5845",
"H.	c #EEB5AE",
"I.	c #63788F",
"J.	c #95A8BF",
"K.	c #B3BFD1",
"L.	c #B7C3D4",
"M.	c #C1CCDA",
"N.	c #CBD3DE",
"O.	c #D1D9E5",
"P.	c #D6DFE7",
"Q.	c #E0E5ED",
"R.	c #E3E9F0",
"S.	c #EBEEF2",
"T.	c #FFFFFE",
"U.	c #B8C7D3",
"V.	c #707688",
"W.	c #A2B1C7",
"X.	c #E0E8F8",
"Y.	c #D0D6E1",
"Z.	c #2E092E",
"`.	c #D028D0",
" +	c #700970",
".+	c #EFF3FB",
"++	c #EDF2FA",
"@+	c #C6CCDB",
"#+	c #E2E8F8",
"$+	c #647890",
"%+	c #8DA4B9",
"&+	c #ACBACD",
"*+	c #B0BCD0",
"=+	c #EAEEF2",
"-+	c #FCFCFB",
";+	c #B7C5D2",
">+	c #9EADC3",
",+	c #EFF3FC",
"'+	c #DDE6F8",
")+	c #380938",
"!+	c #CA1BCA",
"~+	c #BD0CBD",
"{+	c #160916",
"]+	c #B310B3",
"^+	c #740974",
"/+	c #6A096A",
"(+	c #CFD7E1",
"_+	c #E3E6ED",
":+	c #88B279",
"<+	c #E6ECF9",
"[+	c #F83604",
"}+	c #F0F3FB",
"|+	c #DEE6F7",
"1+	c #D1D9E3",
"2+	c #647990",
"3+	c #899FB7",
"4+	c #A3B3C6",
"5+	c #A9B7CA",
"6+	c #B0BDD0",
"7+	c #C1CDDA",
"8+	c #CCD3DD",
"9+	c #F4F6F8",
"0+	c #B3C3CF",
"a+	c #707788",
"b+	c #D2DCF5",
"c+	c #B7C1D2",
"d+	c #AF09AF",
"e+	c #A409A4",
"f+	c #EAF0FA",
"g+	c #D9E0EB",
"h+	c #4BB11F",
"i+	c #4DB022",
"j+	c #3E9818",
"k+	c #A3AFC6",
"l+	c #D5614A",
"m+	c #657991",
"n+	c #8097B1",
"o+	c #9BABC1",
"p+	c #A1B2C5",
"q+	c #A8B7CA",
"r+	c #B1BDD0",
"s+	c #CCD3DE",
"t+	c #D6DFE8",
"u+	c #DEE5EC",
"v+	c #F1F2F7",
"w+	c #B1C0D0",
"x+	c #D8E2F7",
"y+	c #D5E1F6",
"z+	c #CDD9F4",
"A+	c #C8D5F3",
"B+	c #B0BBCD",
"C+	c #970997",
"D+	c #49AF20",
"E+	c #6DCD42",
"F+	c #65C33D",
"G+	c #449D1E",
"H+	c #2E7D0D",
"I+	c #AFB9CD",
"J+	c #31800F",
"K+	c #D6DBE5",
"L+	c #DAE4F7",
"M+	c #D3DEF5",
"N+	c #CEDBF4",
"O+	c #C5D4F2",
"P+	c #7692AE",
"Q+	c #8EA2BB",
"R+	c #98AAC0",
"S+	c #D1D9E4",
"T+	c #E9ECF2",
"U+	c #ADBDCE",
"V+	c #707789",
"W+	c #00FFFF",
"X+	c #93A2B7",
"Y+	c #C1D0F1",
"Z+	c #AAB5CA",
"`+	c #CAD1DB",
" @	c #4DAE23",
".@	c #60BD38",
"+@	c #52AD2C",
"@@	c #399113",
"#@	c #E93404",
"$@	c #BF482C",
"%@	c #718CA9",
"&@	c #839AB5",
"*@	c #8CA1BA",
"=@	c #99AAC0",
"-@	c #C2CCD9",
";@	c #CBD4DF",
">@	c #E0E6EE",
",@	c #A7B9CA",
"'@	c #717889",
")@	c #008080",
"!@	c #BCCDF0",
"~@	c #A5B1C7",
"{@	c #348810",
"]@	c #368E10",
"^@	c #32870E",
"/@	c #286D0B",
"(@	c #CAD7F3",
"_@	c #399214",
":@	c #D53106",
"<@	c #DE4013",
"[@	c #761C04",
"}@	c #801F04",
"|@	c #677B92",
"1@	c #6E88A5",
"2@	c #7D94AF",
"3@	c #8FA2BB",
"4@	c #9BACC2",
"5@	c #A4B4C6",
"6@	c #ADBACD",
"7@	c #B4BFD2",
"8@	c #BCC7D8",
"9@	c #C7D0DC",
"0@	c #D0D7E2",
"a@	c #A6B8CA",
"b@	c #BCC4D5",
"c@	c #A8B3C8",
"d@	c #A0ACC3",
"e@	c #2C750C",
"f@	c #2E790D",
"g@	c #26680A",
"h@	c #B3BDCF",
"i@	c #ABB6CB",
"j@	c #CB2F06",
"k@	c #A72605",
"l@	c #751C05",
"m@	c #637A93",
"n@	c #63829F",
"o@	c #7691AD",
"p@	c #889EB7",
"q@	c #8CA3B8",
"r@	c #94A7BE",
"s@	c #97AAC0",
"t@	c #9EB1C5",
"u@	c #A6B7C8",
"v@	c #B2C0D0",
"w@	c #8BA3BA",
"x@	c #70798C",
"y@	c #7C808F",
"z@	c #657A92",
"A@	c #687A91",
"B@	c #677A91",
"C@	c #667990",
"D@	c #657990",
"E@	c #64788F",
"F@	c #63778E",
"G@	c #5E7791",
"H@	c #8D848D",
". . . . . . + . . . . . . . . . . . . . . . . . . . . . . . . . . . . . . . . . . . . . . . . . . . . . . . . . . . . . . . . . . . . . . . . . . . . . . . . . . . . . . . . . . . . . . . . . . . . . . . . . . . . . . . . . . . . . . . . . . . . . . . . . . . . . . . . . . . . . . . . . . . . . . . . . . . . . . . . . . . ",
". . . . . + @ + . . . . . . . . . . . . . # # # # # # $ % & * . . . . . . . . . . . . . . . . . . . . . . . . . . = = = = = = - ; > , . . . . . . . . # # # # # # $ % & * . . . . . . . . = = = = = = - ' > , . . . . . . . . # # # # # # $ % & * . . . . . . . . = = = = = = - - ) , . . . . . . ! ~ { ] ^ / . . . . . . . . . . . ",
". . . . + @ @ ( + . . . . . . . . . . . . # _ _ _ _ _ _ _ : < [ . . . . . . . . . . . . . . . . } . . . . . . . . = _ _ _ _ _ _ _ | 1 ) . . . . . . . # _ _ _ _ _ _ _ : < [ . . . . . . . = _ _ _ _ _ _ _ * 1 ) . . . . . . . # _ _ _ _ _ _ _ 2 < [ . . . . . . . = _ _ _ _ _ _ _ | 1 ) . . . . . 3 4 5 6 7 8 9 . . . . . . . . 0 . ",
". . . + @ @ ( ( a + . . . . . . . . . . . # _ _ _ _ _ _ b c d e [ . . . . . . . . . . . . . . f g h . . . . . . . = _ _ _ _ _ _ i j k l ) . . . . . . # _ _ _ _ _ _ i c d e [ . . . . . . = _ _ _ _ _ _ _ j k 1 m . . . . . . # _ _ _ _ _ _ b c d e [ . . . . . . = _ _ _ _ _ _ i j k l m . . . . n o p q r s t u v v w w x y z . . ",
". . + @ @ ( ( a A + + . . . B . . . . . . C _ D E E E E b 2 F G < . . . . . . H H H H H . . f I J K L . . . . . . M _ N | j | | i | O l l . . . . . . C _ D E E E E P 2 F Q < . . . . . . M _ N | j | j b | R S 1 . . . . . . C _ D E E E E b 2 F G < . . . . . . - _ N | j | | i | R S l . . . . T U V W X Y Z Z `  ...+.@.#.$.. . ",
". + ( ( ( ( a A + B . . . B %.B . . . . . &._ _ _ _ _ b P *.=.-.G . . . . . . . . . . . . f I J ;.>.,.'.. . . . . - _ _ _ _ _ i _ ).!.~.R . . . . . . &._ _ _ _ _ b P *.=.-.Q . . . . . . - _ _ _ _ _ _ i ).{.~.l . . . . . . &._ _ _ _ _ b P *.=.-.G . . . . . . - _ _ _ _ _ _ i ).{.].S . . . . ^./.(._.:.<.[.}.|.1.2._ _ 3.4.. . ",
". . B ( ( 5.A + B . 6.. B %.7.7.B . . . . % _ D E E E E E 8.9.M F . . . . . . H H H H . f 0.a.b.c.d.e.f.g.. . . . - _ k | | | | j b P !.R . . . . . . % _ D E E E E : 9.h.-.F . . . . . . - _ N | | | | | b b ~.R . . . . . . % _ D E E E E E 8.9.M i.. . . . . . - _ N | | | | | i P !.R . . . . j.k.l.m.n.o.p.q.r.s.t.u._ v.w.. . ",
". . . B a x.y.B . . . B %.7.7.B . . . . . z._ _ _ _ _ P 8.A.A.) B.. . . . . . . . . . . } C.;.D.E.e.f.g.g.. . . . > _ _ _ _ _ _ i 8.P ].O . . . . . . z._ _ _ _ _ P 9.A.A.) B.. . . . . . > _ _ _ _ _ i b P F.].O . . . . . . & _ _ _ G.H.8.8.A.A.) B.. . . . . . > _ _ _ G.H.i i h.P ].O . . . . I.J.K.L.M.N.O.P.Q.R.S.t.T.U.V.. . ",
". . . . B + B . 6.. . . B 7.B . . . . . . W._ D E E E E E E X.Y.F . . . . . . H H H H . C.>.Z.`.e.f.g. +g.. . . . > _ N | | | | | | .+].R . . . . . . W._ D E E E E E : X.Y.F . . . . . . ) _ N | | | | | | ++].S . . . . . . & _ @+G.G.E E E E #+) F . . . . . . > _ N G.G.| | | | h.].S . . . . $+%+&+*+L.M.j O.P.Q.r.=+-+;+V.. . ",
". . . . . B . . . . . . . B . . . . . . . >+_ _ P _ ,+A.A.'+#+@+G . . . . . . . . . . . )+!+~+{+]+g.^+/+g.. . . . (+_ _ i _ P 8.h..+.+_+l . . . . . :+:+>+_ b _ ,+A.<+'+#+@+Q . . . . . :+:+>+_ i _ P h.8.++h.=.S . . . . . . >+_ G.[+H.}+A.<+X.|+@+Q . . . . . . 1+_ G.[+H.P 9.9.++++=.S . . . . 2+3+4+5+6+L.7+8+O.P.q.r.9+0+a+. . ",
". . . . . . . . 6.. . . . . . . . . . . . E _ D : E E E E : b+c+< . . . . . . H H H H . . g.d+e+g.^+/+g.. . . . . * _ N | | | | | | f+g+l . . . . :+h+i+j+k+E E 2 : E E b+c+e . . . . :+h+i+j+>+| * | | j * <+k 1 . . . . . . : G.[+[+l+E E E E b+c+e . . . . . . (+G.[+[+l+* | | | A.-.l . . . . m+n+o+p+q+r+L.m.s+O.t+u+v+w+a+. . ",
". . . . . . . . . . . . . B . . . . . . . c 9.9.A.X.x+y+b+z+A+B+< . . . . . . . . . . . . . g.C+g./+g.. . . . . . j i P F.}+++f+A.).#+g+l . . . :+D+E+F+G+H+>+X.x+y+b+z+A+I+< . . . :+i+E+F+G+J+>+}+++f+A.<+<+K+1 . . . . G.. G.[+[+H.#+L+M+b+N+O+B+< . . . . G.. G.[+[+H.++++f+A.<+#+-.l . . . . n P+Q+R+p+q+r+L.m.N.S+p.T+U+V+. . ",
". . . . . . . . 6.. 6.. B W+B . . . . . . X+++D E E : : E E Y+Z+< . . . . . . H H H H H . . . g.g.g.. . . . . . . `+8.k * | * | | j #+K+1 . . . :+ @.@+@@@H+>+E E E E E Y+Z+< . . . :+D+.@+@@@H+>+| | | | | #+K+1 . . . G.[+G.[+#@$@E E E E E E Y+Z+< . . . G.[+G.[+#@$@| | | | | | #+> 1 . . . . n %@&@*@=@p+5+6+L.-@;@S+>@,@'@. . ",
". . . . . . . . . . . B W+)@)@B . . . . . X+#+|+x+b+z+A+O+Y+!@~@< . . . . . . . . . . . . . . . g.. . . . . . . . `+9.,+A.A.<+<+#+#+|+> 1 . . . :+{@@@]@^@/@>+b+z+(@O+Y+!@~@< . . . :+{@_@]@^@/@>+A.<+<+#+#+|+m 1 . . . :@[+[+<@[@X.x+M+N+(@O+Y+!@~@< . . . :@[+[+:@}@8.A.A.<+<+#+#+|+> 1 . . . . |@1@2@&@3@4@5@6@7@8@9@0@Q.a@'@. . ",
". . . . . . . . . . B W+)@)@B . . . . . . X+x+@+b@c+B+B+Z+c@k+d@< . . . . . . . . . . . . . . . . . . . . . . . . `+++k k M -.K+K+) ) * 1 . . . . < e@f@g@>+b@c+h@B+i@c@k+>+< . . . . e e@f@g@>+k M -.K+K+' ) * 1 . . . . j@k@[@x+@+b@h@h@B+i@c@W.d@< . . . . j@k@l@++k k g+-.-.K+> ) Y.1 . . . . m@n@1@%@o@n+p@q@r@s@t@u@v@w@x@. . ",
". . . . . . . . . . . B )@B . . . . . . . X+< < < < < < e < < < e . . . . . . . . . . . . . . . . . . . . . . . . `+1 1 l l l l 1 l l l l . . . . . < < < < < < < < < < < < < . . . . . < < < 1 1 1 l l 1 1 l 1 1 . . . . . [@X+< < e e < < < < < < < . . . . . [@j 1 l l l 1 l l 1 l l 1 . . . . y@z@A@B@B@C@D@D@E@E@E@F@] G@H@. . ",
". . . . . . . . . . . . B . . . . . . . . . . . . . . . . . . . . . . . . . . . . . . . . . . . . . . . . . . . . . . . . . . . . . . . . . . . . . . . . . . . . . . . . . . . . . . . . . . . . . . . . . . . . . . . . . . . . . . . . . . . . . . . . . . . . . . . . . . . . . . . . . . . . . . . . . . . . . . . . . . . . . "};
