/* XPM */
static char *explorer[] = {
/* columns rows colors chars-per-pixel */
"144 17 242 2",
"   c black",
".  c #090909",
"X  c #110911",
"o  c #160916",
"O  c #260926",
"+  c #2E092E",
"@  c #380938",
"#  c #390939",
"$  c #751C05",
"%  c #761C04",
"&  c #4C2904",
"*  c #512C04",
"=  c #6B3A06",
"-  c #693C05",
";  c #26680A",
":  c #286D0B",
">  c #2C750C",
",  c #2E790D",
"<  c #2E7D0D",
"1  c #734106",
"2  c #410941",
"3  c #4B094B",
"4  c #4E094E",
"5  c #500950",
"6  c #530953",
"7  c #690969",
"8  c #6A096A",
"9  c #700970",
"0  c #740974",
"q  c #750975",
"w  c #354963",
"e  c #364A64",
"r  c #3C4F69",
"t  c #3C5069",
"y  c #3D5069",
"u  c #42556D",
"i  c #43566E",
"p  c #4A5C73",
"a  c #800000",
"s  c #801F04",
"d  c #A72605",
"f  c #CB2F06",
"g  c #D53106",
"h  c #E93404",
"j  c #F83604",
"k  c #945E05",
"l  c #BF482C",
"z  c #DE4013",
"x  c #EF5845",
"c  c #D5614A",
"v  c #31800F",
"b  c #32870E",
"n  c #348810",
"m  c #368E10",
"M  c #399113",
"N  c #399214",
"B  c #3E9818",
"V  c #449D1E",
"C  c #4BB11F",
"Z  c #49AF20",
"A  c #4DAE23",
"S  c #52AD2C",
"D  c #4DB022",
"F  c #60BD38",
"G  c #65C33D",
"H  c #6DCD42",
"J  c #FFC005",
"K  c #FFE23F",
"L  c #88B279",
"P  c #FF9B77",
"I  c #970997",
"U  c #9C099C",
"Y  c #9E099E",
"T  c #9F099F",
"R  c #A409A4",
"E  c #AF09AF",
"W  c #BD0CBD",
"Q  c #B310B3",
"!  c #BC13BC",
"~  c #C015C0",
"^  c #C71EC7",
"/  c #CA1BCA",
"(  c #C920C9",
")  c #CB23CB",
"_  c #D426D4",
"`  c #D028D0",
"'  c #D630D6",
"]  c #D730D7",
"[  c #DA33DA",
"{  c #DF38DF",
"}  c magenta",
"|  c #E43EE4",
" . c #E641E6",
".. c #E741E7",
"X. c #F24DF2",
"o. c #F450F4",
"O. c #F550F5",
"+. c #F956F9",
"@. c #FB59FB",
"#. c #FE5BFE",
"$. c #FF5EFF",
"%. c #008080",
"&. c cyan",
"*. c #808080",
"=. c #8087B4",
"-. c #93A2B7",
";. c #9CA6B3",
":. c #9DA6B3",
">. c #96A5BA",
",. c #96A5BB",
"<. c #9AA9BF",
"1. c #9EABBE",
"2. c #A0A9B6",
"3. c #A3ACB8",
"4. c #A6AFBA",
"5. c #EEB5AE",
"6. c #9CABC0",
"7. c #9EADC3",
"8. c #A0ACC3",
"9. c #A3AFC6",
"0. c #A7B2C1",
"q. c #A7B3C2",
"w. c #A2B1C7",
"e. c #A5B1C7",
"r. c #A4B3C9",
"t. c #A5B5CB",
"y. c #A8B3C8",
"u. c #AAB5CA",
"i. c #ABB6CB",
"p. c #A9B9CF",
"a. c #AFB9CD",
"s. c #B0BBCD",
"d. c #B3BDCF",
"f. c #ADBDD3",
"g. c #AEBED4",
"h. c #B7C0D2",
"j. c #B7C1D2",
"k. c #B1C1D7",
"l. c #BBC5D4",
"z. c #BCC4D5",
"x. c #B2C2D8",
"c. c #BFC7D8",
"v. c #BCCDF0",
"b. c #C6CCDB",
"n. c #CAD1DB",
"m. c #CBD3DD",
"M. c #CDD5DF",
"N. c #CFD6DF",
"B. c #CED6E0",
"V. c #CFD7E1",
"C. c #CDD6E2",
"Z. c #CADAEE",
"A. c #D0D6E1",
"S. c #D1D9E3",
"D. c #D2D8E3",
"F. c #D3D9E3",
"G. c #D4D9E0",
"H. c #D4DAE1",
"J. c #D2DAE4",
"K. c #D3DBE5",
"L. c #D4DAE4",
"P. c #D5DBE5",
"I. c #D6DBE5",
"U. c #D5DCE7",
"Y. c #D8DCE6",
"T. c #D8DDE6",
"R. c #D9DDE7",
"E. c #DADEE7",
"W. c #D7DEE9",
"Q. c #D7DFEA",
"!. c #DADFE8",
"~. c #C1D0F1",
"^. c #C2D1F1",
"/. c #C5D4F2",
"(. c #C8D5F3",
"). c #CAD7F3",
"_. c #CDD9F4",
"`. c #CEDBF4",
"'. c #D1DDF4",
"]. c #D2DCF5",
"[. c #D3DEF5",
"{. c #DBE0E9",
"}. c #D9E0EB",
"|. c #DDE2EA",
" X c #DEE2EA",
".X c #D9E1EC",
"XX c #DFE3EC",
"oX c #D5E1F6",
"OX c #D8E2F7",
"+X c #DAE4F7",
"@X c #DCE5F7",
"#X c #DEE6F7",
"$X c #DDE6F8",
"%X c #E2E6ED",
"&X c #E3E6ED",
"*X c #E6EBF0",
"=X c #E5EDF6",
"-X c #E9ECF1",
";X c #ECEEF3",
":X c #EDEFF3",
">X c #E0E8F8",
",X c #E1E8F8",
"<X c #E2E8F8",
"1X c #E2EAF8",
"2X c #E3EAF9",
"3X c #E4EAF9",
"4X c #E5EBF9",
"5X c #E6ECF9",
"6X c #E7EDF9",
"7X c #E8EEF9",
"8X c #E8EDFA",
"9X c #E9EDFA",
"0X c #E9EEFA",
"qX c #EAEFFA",
"wX c #EAF0FA",
"eX c #ECF0FB",
"rX c #EDF1FB",
"tX c #EDF2FA",
"yX c #EDF2FB",
"uX c #EEF2FB",
"iX c #EFF3FB",
"pX c #EFF3FC",
"aX c #F0F2F6",
"sX c #F0F3FB",
"dX c #F1F4FC",
"fX c #F3F6FC",
"gX c #F4F6FC",
"hX c #F4F7FC",
"jX c #F4F7FD",
"kX c #F6F8FC",
"lX c #F7F9FD",
"zX c #F8F9FD",
"xX c #F9FAFD",
"cX c #F8FAFE",
"vX c #F9FBFE",
"bX c #FBFCFE",
"nX c #FCFCFE",
"mX c #FCFDFE",
"MX c #FDFDFE",
"NX c #FEFEFF",
"BX c #FEFFFF",
"VX c gray100",
/* pixels */
"P P P P P P & P P P P P P P P P P P P P P P P P P P P P P P P P P P P P P P P P P P P P P P P P P P P P P P P P P P P P P P P P P P P P P P P P P P P P P P P P P P P P P P P P P P P P P P P P P P P P P P P P P P P P P P P P P P P P P P P P P P P P P P P P P P P P P P P P P P P P P P P P ",
"P P P P P & K & P P P P P P P P P P P P P x.x.x.x.x.x.g.p.r.C.P P P P P P P P P P P P P P P P P P P P P P P P P P .X.X.X.X.X.XW.U.J.*XP P P P P P P P x.x.x.x.x.x.g.p.r.C.P P P P P P P P .X.X.X.X.X.XW.K.J.*XP P P P P P P P x.x.x.x.x.x.g.p.r.C.P P P P P P P P .X.X.X.X.X.XW.W.D.*XP P P P P ",
"P P P P & K K J & P P P P P P P P P P P P x.VXVXVXVXVXVXVX6.w q.P P P P P P P P P P P P P P P P 3 P P P P P P P P .XVXVXVXVXVXVXVXM.;.D.P P P P P P P x.VXVXVXVXVXVXVX6.w q.P P P P P P P .XVXVXVXVXVXVXVXC.;.D.P P P P P P P x.VXVXVXVXVXVXVX1.w q.P P P P P P P .XVXVXVXVXVXVXVXM.;.D.P P P P ",
"P P P & K K J J = & P P P P P P P P P P P x.VXVXVXVXVXVXvX>.l.e q.P P P P P P P P P P P P P P 6 +.# P P P P P P P .XVXVXVXVXVXVXbXm. X:.D.P P P P P P x.VXVXVXVXVXVXbX>.l.e q.P P P P P P .XVXVXVXVXVXVXVXm. X;.H.P P P P P P x.VXVXVXVXVXVXvX>.l.e q.P P P P P P .XVXVXVXVXVXVXbXm. X:.H.P P P ",
"P P & K K J J = 1 & & P P P   P P P P P P k.VXc.<.<.<.<.vX1.i r w P P P P P P =.=.=.=.=.P P 6 $.o.{ O P P P P P P !.VXXXM.m.M.M.bXM.4.:.:.P P P P P P k.VXc.<.<.<.<.kX1.i t w P P P P P P !.VXXXM.m.M.m.vXM.3.2.;.P P P P P P k.VXc.<.<.<.<.vX1.i r w P P P P P P W.VXXXM.m.M.M.bXM.3.2.:.P P P ",
"P & J J J J = 1 &   P P P   }   P P P P P f.VXVXVXVXVXvXkXZ.%XR.r P P P P P P P P P P P P 6 $.o. ._ ^ X P P P P P W.VXVXVXVXVXbXVX=X:X;X3.P P P P P P f.VXVXVXVXVXvXkXZ.%XR.t P P P P P P W.VXVXVXVXVXVXbX=XaX;X:.P P P P P P f.VXVXVXVXVXvXkXZ.%XR.r P P P P P P W.VXVXVXVXVXVXbX=XaX-X2.P P P ",
"P P   J J k 1 &   P *.P   } a a   P P P P p.VXc.<.<.<.<.<.jXfX!.i P P P P P P =.=.=.=.P 6 @.X...[ ( ! Y . P P P P W.VX XM.M.M.M.m.vXkX:X3.P P P P P P p.VXc.<.<.<.<.6.fXhXR.i P P P P P P W.VXXXM.M.M.M.M.vXvX;X3.P P P P P P p.VXc.<.<.<.<.<.jXfX!.u P P P P P P W.VXXXM.M.M.M.M.bXkX:X3.P P P ",
"P P P   = - *   P P P   } a a   P P P P P t.VXVXVXVXVXkXjXqXqXD.p P P P P P P P P P P P 3 2  .' ) ! Y . . P P P P J.VXVXVXVXVXVXbXjXkX-X4.P P P P P P t.VXVXVXVXVXkXfXqXqXD.p P P P P P P J.VXVXVXVXVXbXvXkXgX-X4.P P P P P P r.VXVXVXx 5.jXjXqXqXD.p P P P P P P J.VXVXVXx 5.bXbXhXkX-X4.P P P ",
"P P P P   &   P *.P P P   a   P P P P P P w.VXc.<.<.<.<.<.<.>XA.i P P P P P P =.=.=.=.P 2 _ + ` ! Y . 9 . P P P P J.VXXXM.M.M.M.M.M.iX-X3.P P P P P P w.VXc.<.<.<.<.<.6.>XA.i P P P P P P D.VXXXM.M.M.M.M.M.tX-X2.P P P P P P r.VXb.x x <.<.<.<.<XD.i P P P P P P J.VXXXx x M.M.M.M.hX-X2.P P P ",
"P P P P P   P P P P P P P   P P P P P P P 7.VXVXkXVXpXqXqX$X<Xb.r P P P P P P P P P P P @ / W o Q . 0 8 . P P P P V.VXVXbXVXkXjXhXiXiX&X:.P P P P P L L 7.VXvXVXpXqX5X$X<Xb.t P P P P P L L 7.VXbXVXkXhXjXtXhX%X2.P P P P P P 7.VXx j 5.sXqX5X>X#Xb.t P P P P P P S.VXx j 5.kXfXfXtXtX%X2.P P P ",
"P P P P P P P P *.P P P P P P P P P P P P <.VXc.6.<.<.<.<.6.].j.w P P P P P P =.=.=.=.P P . E R . 0 8 . P P P P P C.VXXXM.M.M.M.M.M.wX}.:.P P P P L C D B 9.<.<.1.6.<.<.].j.e P P P P L C D B 7.M.C.M.M.m.C.5X X;.P P P P P P 6.x j j c <.<.<.<.].j.e P P P P P P V.x j j c C.M.M.M.qXR.:.P P P ",
"P P P P P P P P P P P P P   P P P P P P P >.fXfXqX>XOXoX]._.(.s.w P P P P P P P P P P P P P . I . 8 . P P P P P P m.bXkXgXsXtXwXqX=X<X}.:.P P P L Z H G V < 7.>XOXoX]._.(.a.w P P P L D H G V v 7.sXtXwXqX5X5XI.;.P P P P x P x j j 5.<X+X[.].`./.s.w P P P P x P x j j 5.tXtXwXqX5X<XR.:.P P P ",
"P P P P P P P P *.P *.P   &.  P P P P P P -.tXc.<.<.6.6.<.<.~.u.w P P P P P P =.=.=.=.=.P P P . . . P P P P P P P n.jX XC.M.C.M.M.m.<XI.;.P P P L A F S M < 7.<.<.<.<.<.~.u.w P P P L Z F S M < 7.M.M.M.M.M.<XI.;.P P P x j x j h l <.<.<.<.<.<.~.u.w P P P x j x j h l M.M.M.M.M.M.<XJ.;.P P P ",
"P P P P P P P P P P P   &.%.%.  P P P P P -.<X#XOX]._.(./.~.v.e.w P P P P P P P P P P P P P P P . P P P P P P P P n.fXpXqXqX5X5X<X<X#XJ.;.P P P L n M m b : 7.]._.)./.~.v.e.w P P P L n N m b : 7.qX5X5X<X<X#XH.;.P P P g j j z % >XOX[.`.)./.~.v.e.w P P P g j j g s jXqXqX5X5X<X<X#XJ.;.P P P ",
"P P P P P P P P P P   &.%.%.  P P P P P P -.OXb.z.j.s.s.u.y.9.8.w P P P P P P P P P P P P P P P P P P P P P P P P n.tX X X!.R.I.I.D.D.C.;.P P P P w > , ; 7.z.j.d.s.i.y.9.7.w P P P P e > , ; 7. X!.R.I.I.K.D.C.;.P P P P f d % OXb.z.d.d.s.i.y.w.8.w P P P P f d $ tX X X}.R.R.I.J.D.A.;.P P P ",
"P P P P P P P P P P P   %.  P P P P P P P -.w w w w w w e w w w e P P P P P P P P P P P P P P P P P P P P P P P P n.;.;.:.:.:.:.;.:.:.:.:.P P P P P w w w w w w w w w w w w w P P P P P w w w ;.;.;.:.:.;.;.:.;.;.P P P P P % -.w w e e w w w w w w w P P P P P % m.;.:.:.:.;.:.:.;.:.:.;.P P P ",
"P P P P P P P P P P P P   P P P P P P P P P P P P P P P P P P P P P P P P P P P P P P P P P P P P P P P P P P P P P P P P P P P P P P P P P P P P P P P P P P P P P P P P P P P P P P P P P P P P P P P P P P P P P P P P P P P P P P P P P P P P P P P P P P P P P P P P P P P P P P P P P P P "
};
