/* XPM */
static char *fileicons[] = {
/* columns rows colors chars-per-pixel */
"32 32 67 1",
"  c #364A64",
". c #3F536D",
"X c #4D617A",
"o c #804000",
"O c #0150AE",
"+ c #3A70AD",
"@ c #576981",
"# c #5B6E85",
"$ c #5F7189",
"% c #64768C",
"& c #68798F",
"* c #6C7D93",
"= c #6F8096",
"- c #708096",
"; c #75859C",
": c #7D8A9E",
"> c #7C8CA3",
", c #8291A5",
"< c #8695AB",
"1 c #8B99AD",
"2 c #8D9CB2",
"3 c #909FB3",
"4 c #93A1B6",
"5 c #98A4B4",
"6 c #95A4BA",
"7 c #99A7BB",
"8 c #9BAABE",
"9 c #A3AEBD",
"0 c #879ECD",
"q c #899FCD",
"w c #8BA1CF",
"e c #9FADC0",
"r c #8EA3D0",
"t c #88ADD9",
"y c #91A6D1",
"u c #95AAD3",
"i c #9AADD4",
"p c #9EB1D6",
"a c #A1AFC2",
"s c #A4B1C6",
"d c #A9B4C9",
"f c #A1B4D7",
"g c #A4B6D8",
"h c #A7B9DA",
"j c #ABBCDB",
"k c #BDC5D5",
"l c #B3C2DE",
"z c #B8C7E0",
"x c #B6C9EF",
"c c #B9CBEF",
"v c #BCCDF0",
"b c #BFD0F0",
"n c #D3DAE3",
"m c #C4D3F1",
"M c #C9D6F3",
"N c #CDDAF4",
"B c #D2DDF5",
"V c #D6E1F6",
"C c #DAE4F7",
"Z c #DEE7F8",
"A c #EDEFF3",
"S c #E4EAF9",
"D c #E9EEFA",
"F c #EDF1FB",
"G c #F2F5FC",
"H c #F6F9FD",
"J c #FEFFFF",
/* pixels */
"oooooooooooooooooooooooooooooooo",
"ooooossea777776432211<<9oooooooo",
"ooooosJJJJJJHHGFFDSSZC,=5ooooooo",
"oooooeJJJJJJJJJJJJJJJJ>A$1oooooo",
"ooooo7JJJJJJJJJJJJJJJJ>nkX,ooooo",
"ooooo7JJJJJJJJJJJJJJJJ>ks4.:oooo",
"ooooo7JJJJJJJJJJJJJJJJ:     oooo",
"ooooo6JJJJJJJJJJJJJJJHHd72> oooo",
"ooooo4JJJJJJJJJJJJJJHJHHGGz oooo",
"ooooo3JJJJJJJJJJJJJJtOtGGFz oooo",
"ooooo2JJJJJJJJJJJJJJOOOGFFz oooo",
"ooooo1HJJJJJJJt+O+tJtOtFFDj oooo",
"ooooo<JJJJJJJtOOOOOtJFFDDSj oooo",
"ooooo<HJJJJJtOOOOtJttFDDDSj oooo",
"ooooo,HJJJJtOOOOOJJJOtSSSZj oooo",
"ooooo>GJJHH+OOOOOtJtO+SSZZh oooo",
"ooooo>GJHJHOOOOOOOOOOOZZCVg oooo",
"ooooo:FHHHG+OOOOOOOOO+ZVVVf oooo",
"ooooo;FHHGGtOOOOOOOOOtVVBBf oooo",
"ooooo;DGGGFFtOOOOOOOtBVBBNp oooo",
"ooooo;SGGFFDStOOOOOtBNBNNNp oooo",
"ooooo*SFDDFSSSt+O+tBBNNNMmi oooo",
"ooooo*SFDSSSZZZZVBBBNNMMmmu oooo",
"ooooo*ZDSSSZSVVVVBBNBMMmmmu oooo",
"ooooo*VSSZCZVVBBBNNNmmmmmcy oooo",
"ooooo%VSSZVVVBBNNMMmmmbbbcr oooo",
"ooooo%VZZVVBBBNNMMmmmmvvvcr oooo",
"ooooo%BVVVBBBNMMMmmmbvvvccw oooo",
"ooooo#BVVBBNNMMmmmbvvvvcxxw oooo",
"ooooo@Nljjjggfffiiuuyyrww00 oooo",
"ooooo@                      oooo",
"oooooooooooooooooooooooooooooooo"
};
