/* XPM */
static char *filter_bitmap[] = {
/* columns rows colors chars-per-pixel */
"90 17 180 2",
"   c #751C05",
".  c #761C04",
"X  c #26680A",
"o  c #286D0B",
"O  c #2C750C",
"+  c #2E790D",
"@  c #2E7D0D",
"#  c #354963",
"$  c #364A64",
"%  c #3C4F69",
"&  c #3C5069",
"*  c #3D5069",
"=  c #42556D",
"-  c #43566E",
";  c #4A5C73",
":  c #801F04",
">  c #A72605",
",  c #CB2F06",
"<  c #D53106",
"1  c #E93404",
"2  c #F83604",
"3  c #BF482C",
"4  c #DE4013",
"5  c #EF5845",
"6  c #D5614A",
"7  c #31800F",
"8  c #32870E",
"9  c #348810",
"0  c #368E10",
"q  c #399113",
"w  c #399214",
"e  c #3E9818",
"r  c #449D1E",
"t  c #4BB11F",
"y  c #49AF20",
"u  c #4DAE23",
"i  c #52AD2C",
"p  c #4DB022",
"a  c #60BD38",
"s  c #65C33D",
"d  c #6DCD42",
"f  c #88B279",
"g  c #FF9B77",
"h  c #93A2B7",
"j  c #9CA6B3",
"k  c #9DA6B3",
"l  c #96A5BA",
"z  c #96A5BB",
"x  c #9AA9BF",
"c  c #9EABBE",
"v  c #A0A9B6",
"b  c #A3ACB8",
"n  c #A6AFBA",
"m  c #EEB5AE",
"M  c #9CABC0",
"N  c #9EADC3",
"B  c #A0ACC3",
"V  c #A3AFC6",
"C  c #A7B2C1",
"Z  c #A7B3C2",
"A  c #A2B1C7",
"S  c #A5B1C7",
"D  c #A4B3C9",
"F  c #A5B5CB",
"G  c #A8B3C8",
"H  c #AAB5CA",
"J  c #ABB6CB",
"K  c #A9B9CF",
"L  c #AFB9CD",
"P  c #B0BBCD",
"I  c #B3BDCF",
"U  c #ADBDD3",
"Y  c #AEBED4",
"T  c #B7C0D2",
"R  c #B7C1D2",
"E  c #B1C1D7",
"W  c #BBC5D4",
"Q  c #BCC4D5",
"!  c #B2C2D8",
"~  c #BFC7D8",
"^  c #BCCDF0",
"/  c #C6CCDB",
"(  c #CAD1DB",
")  c #CBD3DD",
"_  c #CDD5DF",
"`  c #CFD6DF",
"'  c #CED6E0",
"]  c #CFD7E1",
"[  c #CDD6E2",
"{  c #CADAEE",
"}  c #D0D6E1",
"|  c #D1D9E3",
" . c #D2D8E3",
".. c #D3D9E3",
"X. c #D4D9E0",
"o. c #D4DAE1",
"O. c #D2DAE4",
"+. c #D3DBE5",
"@. c #D4DAE4",
"#. c #D5DBE5",
"$. c #D6DBE5",
"%. c #D5DCE7",
"&. c #D8DCE6",
"*. c #D8DDE6",
"=. c #D9DDE7",
"-. c #DADEE7",
";. c #D7DEE9",
":. c #D7DFEA",
">. c #DADFE8",
",. c #C1D0F1",
"<. c #C2D1F1",
"1. c #C5D4F2",
"2. c #C8D5F3",
"3. c #CAD7F3",
"4. c #CDD9F4",
"5. c #CEDBF4",
"6. c #D1DDF4",
"7. c #D2DCF5",
"8. c #D3DEF5",
"9. c #DBE0E9",
"0. c #D9E0EB",
"q. c #DDE2EA",
"w. c #DEE2EA",
"e. c #D9E1EC",
"r. c #DFE3EC",
"t. c #D5E1F6",
"y. c #D8E2F7",
"u. c #DAE4F7",
"i. c #DCE5F7",
"p. c #DEE6F7",
"a. c #DDE6F8",
"s. c #E2E6ED",
"d. c #E3E6ED",
"f. c #E6EBF0",
"g. c #E5EDF6",
"h. c #E9ECF1",
"j. c #ECEEF3",
"k. c #EDEFF3",
"l. c #E0E8F8",
"z. c #E1E8F8",
"x. c #E2E8F8",
"c. c #E2EAF8",
"v. c #E3EAF9",
"b. c #E4EAF9",
"n. c #E5EBF9",
"m. c #E6ECF9",
"M. c #E7EDF9",
"N. c #E8EEF9",
"B. c #E8EDFA",
"V. c #E9EDFA",
"C. c #E9EEFA",
"Z. c #EAEFFA",
"A. c #EAF0FA",
"S. c #ECF0FB",
"D. c #EDF1FB",
"F. c #EDF2FA",
"G. c #EDF2FB",
"H. c #EEF2FB",
"J. c #EFF3FB",
"K. c #EFF3FC",
"L. c #F0F2F6",
"P. c #F0F3FB",
"I. c #F1F4FC",
"U. c #F3F6FC",
"Y. c #F4F6FC",
"T. c #F4F7FC",
"R. c #F4F7FD",
"E. c #F6F8FC",
"W. c #F7F9FD",
"Q. c #F8F9FD",
"!. c #F9FAFD",
"~. c #F8FAFE",
"^. c #F9FBFE",
"/. c #FBFCFE",
"(. c #FCFCFE",
"). c #FCFDFE",
"_. c #FDFDFE",
"`. c #FEFEFF",
"'. c #FEFFFF",
"]. c gray100",
/* pixels */
"g g g g g g g g g g g g g g g g g g g g g g g g g g g g g g g g g g g g g g g g g :.e.e.e.e.e.;.;. .f.g g g g g g g g g g g g g g g g g g g g g g g g g g g g 5 m g g g g g g g g g ",
"g g g ! ! ! ! ! ! Y K D [ g g g g g g g g e.e.e.e.e.e.;.%. .f.g g g g g g g g E ! ! ! ! ! Y K D [ [ j ..g g g g g g g g g g g g g g g g g g g g g g g g g g 5 5 g g g g g g g g g g ",
"g g g ! ].].].].].].].M $ C g g g g g g g e.].].].].].].]._ j X.g g g g g g g ! ].].].].].].].M $ Z w.j ..g g g g g g g g g g g g g g g g g g g g g g g g 5 2 m g g g g g g g g g g ",
"g g g ! ].].].].].].^.l W $ C g g g g g g e.].].].].].].].) w.j o.g g g g g g ! ].].].].].].^.l W $ n v j g g g g g g g g g g g g g g g g g g g g g g g 5 2 2 6 g g g g g g g g g g ",
"g g g E ].~ x x x x ^.c - & $ g g g g g g >.].r.) [ _ _ ^._ b v j g g g g g g E ].~ x x x c ^.c - & $ j.v g g g g g g g g g g g g g g g g g g g g 5 g 5 2 2 m g g g g g g g g g g g ",
"g g g U ].].].].(.^.E.{ s.=.& g g g g g g ;.].].].].]./.].g.L.j.v g g g g g g U ].].].].^.^.R.{ s.>.% j.b g g g g g g g g g g g g g g g g g g g 5 2 5 2 1 3 g g g g g g g g g g g g ",
"g g g K ].~ x x x x x R.U.9.- g g g g g g ;.].r._ _ _ _ _ ^.Q.k.b g g g g g g K ].~ x x x x x R.U.>.- h.n g g g g g g g g g g g g g g g g g g g < 2 2 4 . g g g g g g g g g g g g g ",
"g g g F ].].].].].E.R.Z.Z.} ; g g g g g g O.].].].].]./.^.U.Y.h.n g g g g g g F ].].].].].Q.R.Z.Z.O.; h.b g g g g g g g g g g g g g g g g g g g g , >   l.g g g g g g g g g g g g g ",
"g g g A (./ x x x x x x a. .- g g g g g g } ].r._ _ _ _ _ _ P.h.b g g g g g g A ].~ x x x x x x p. .= s.v g g g g g g g g g g g g g g g g g g g g g . g g g g g g g g g g g g g g g ",
"g g g M ].].R.].K.Z.Z.l.l./ % g g g g g g } ].].^.].E.R.Y.F.P.d.v g g g g g g N ].].^.].K.Z.Z.a.x./ % w.j g g g f f N g g g g g g g g g g g g g g g g g g g g g g g g g g g g g g g ",
"g g g M ].Q x x x x x x 7.T # g g g g g g [ ].w._ _ _ _ _ _ N.>.j g g g g g g x ].~ x x M x x x 6.T # =.j g g f t p e N g g g g g g g g g g g g g g g g g g g g g g g g g g g g g g ",
"g g g z R.I.Z.x.u.t.7.4.1.P # g g g g g g ) ^.^.R.P.F.Z.Z.m.b.&.j g g g g g g l R.I.Z.l.u.8.7.4.3.L # ..j g f y d s r 7 N g g g g g g g g g g g g g g g g g g g g g g g g g g g g g ",
"g g g h F./ z M x x x x <.J # g g g g g g ( R.s._ _ _ _ _ _ l.%.j g g g g g g h F.~ M M M x x x <.J #  .j g f u a i q @ N g g g g g g g g g g g g g g g g g g g g g g g g g g g g g ",
"g g g h l.u.t.8.5.3.1.,.^ S # g g g g g g ( P.Z.Z.Z.Z.m.x.l.p...j g g g g g g h l.a.u.8.4.2.1.,.^ S # ` j g f 9 q 0 8 o N g g g g g g g g g g g g g g g g g g g g g g g g g g g g g ",
"g g g h p./ Q I I P J G A B # g g g g g g ( F.s.w.>.=.&.%.%. .} j g g g g g g h a./ R I P L J G S N # j j g g # O + X N g g g g g g g g g g g g g g g g g g g g g g g g g g g g g g ",
"g g g h # # # # # # # # # # # g g g g g g ( j j j j j j j j j j j g g g g g g h # # # # $ $ # # # # # g g g g g # # # g g g g g g g g g g g g g g g g g g g g g g g g g g g g g g g ",
"g g g g g g g g g g g g g g g g g g g g g g g g g g g g g g g g g g g g g g g g g g g g g g g g g g g g g g g g g g g g g g g g g g g g g g g g g g g g g g g g g g g g g g g g g g "
};
