/* XPM */
static char *functionicon[] = {
/* columns rows colors chars-per-pixel */
"18 17 49 1",
"  c #090909",
". c #110911",
"X c #160916",
"o c #260926",
"O c #2E092E",
"+ c #380938",
"@ c #390939",
"# c #410941",
"$ c #4B094B",
"% c #4E094E",
"& c #500950",
"* c #530953",
"= c #690969",
"- c #6A096A",
"; c #700970",
": c #740974",
"> c #750975",
", c #FF9B77",
"< c #970997",
"1 c #9C099C",
"2 c #9E099E",
"3 c #9F099F",
"4 c #A409A4",
"5 c #AF09AF",
"6 c #BD0CBD",
"7 c #B310B3",
"8 c #BC13BC",
"9 c #C015C0",
"0 c #C71EC7",
"q c #CA1BCA",
"w c #C920C9",
"e c #CB23CB",
"r c #D426D4",
"t c #D028D0",
"y c #D630D6",
"u c #D730D7",
"i c #DA33DA",
"p c #DF38DF",
"a c #E43EE4",
"s c #E641E6",
"d c #E741E7",
"f c #F24DF2",
"g c #F450F4",
"h c #F550F5",
"j c #F956F9",
"k c #FB59FB",
"l c #FE5BFE",
"z c #FF5EFF",
"x c #8087B4",
/* pixels */
",,,,,,,,,,,,,,,,,,",
",,,,,,,,,,,,,,,,,,",
",,,,,,,,,,,$,,,,,,",
",,,,,,,,,,*j@,,,,,",
",,xxxxx,,*lfpo,,,,",
",,,,,,,,*zhau0.,,,",
",,xxxx,*khdiw81 ,,",
",,,,,,,$#sue81  ,,",
",,xxxx,#rOt91 ; ,,",
",,,,,,,@q6X7 >- ,,",
",,xxxx,, 54 >- ,,,",
",,,,,,,,, < - ,,,,",
",,xxxxx,,,   ,,,,,",
",,,,,,,,,,, ,,,,,,",
",,,,,,,,,,,,,,,,,,",
",,,,,,,,,,,,,,,,,,",
",,,,,,,,,,,,,,,,,,"
};
